<svg version="1.0" xmlns="http://www.w3.org/2000/svg" width="682.667" height="682.667" viewBox="0 0 512 512"><path d="M256.8 1.5C235.6 6 222 17.7 218.6 34.2c-1.3 6.2-1.3 22.3-.1 32.5.4 2.9.6 5.5.6 5.8 0 1.1 4.1 15.3 5.7 19.5 1.8 5 6.1 13.3 9.9 19.3 3.7 5.9 5.2 10.9 4.8 16.3-.4 5.2-.6 6.2-2.5 13.4-1.3 4.8-1.5 5.6-2.5 11.6-4.1 23.5-1.6 50.5 6.1 68 6.4 14.4 14.1 20.3 22.8 17.4 4.8-1.5 7-4.6 9.6-13.3 10.3-35.1 24.8-61.3 36.3-65.6 2.8-1.1 7.6.8 11 4.1 9.5 9.5 21.2 33.1 28.2 56.8 4.5 15.2 7.2 18.5 15.3 18.5 6.2 0 9.7-2.7 15-11.5 7.9-13.3 12.1-33.2 11.6-55.4-.3-10.8-1.4-17.6-5.1-33-2.4-10.1-2.5-11.5-1.4-17 .7-3.4 1.8-6.8 2.6-7.6 3-3.5 9.7-16.8 12.5-24.8 4.3-12 6.2-24.4 6.2-40.2.1-17.8-2.1-24.2-11.2-33.8C383.8 4.5 359.6-2.3 342.5.9c-10.1 1.9-23.3 8.1-28.8 13.5-1.6 1.6-2 1.7-4.1.3-1.3-.9-3-2.2-3.8-3-2.4-2.4-13.8-7.8-20.3-9.7-7.2-2-20.7-2.2-28.7-.5zM284 19.4c5.3 2 12.2 5.9 13.9 8 1.1 1.4.8 2.1-2.5 5-7 6.3-14.6 10.3-19.7 10.5-3.1.2-6.7 4.7-6.7 8.5 0 2.6.7 4 3.1 6 2.6 2.2 3.8 2.6 7.5 2.1 10.8-1.3 20.6-7.6 36.3-23.2 9.3-9.3 12.7-12 19-15 7.2-3.6 8.1-3.7 17.6-3.7 12 .1 20.6 2.6 27.4 8.2 6.5 5.3 8.4 10.4 8.3 22.6-.2 14.2-.7 19.2-3.1 28.6-1.8 6.8-3.4 10.4-14.3 31-5.3 10.1-5.9 18.7-2.3 33.5 3.8 15.8 4.6 21.4 4.9 32.2.3 11.5-1.4 23.9-4.5 33.6-3 9.8-3.4 9.9-6.2 1.1-13.2-41.6-32.1-66.4-50.9-66.7-18.7-.3-35.5 20.9-50.7 63.7l-3.8 10.9-2.1-5.6c-2.2-5.7-2.8-7.9-3.7-13.2-3-17.7-2.5-32.2 1.7-50.5 1.2-5.2 2.3-10.2 2.5-11 2.7-12 1-20.5-7.3-35.2-5.8-10.3-10.4-21.7-11.8-29.3-1.5-8.2-1.7-10.8-1.8-21.5-.1-21.1 5.1-26.9 28.7-32.4 3.8-.9 16 .2 20.5 1.8zm172.2 211.3c-16 3.3-28.8 12.8-41.3 30.9-9.2 13.2-12.6 15.6-37.9 26.5l-19.5 8.4-6-3-6-3-33.5-.5-33.5-.5-17.1-10.3c-24.3-14.6-23.5-14.4-59.4-14.6-33-.2-37.1.3-48.7 5.9-7.1 3.5-18.7 11.3-25.9 17.6-6.9 5.9-28.8 28.3-33.9 34.6l-5 6.3-11-10.9c-6-6-11.9-11.3-13-11.9-5-2.4-7-.9-33.6 25.8-14.3 14.2-25.9 26.2-26 26.7-.9 7.1-5 2.5 72.5 80.1C146 507.5 150.7 512 154 512c3.1 0 5.5-2.1 29.7-26.3 14.5-14.4 26.6-27.2 26.9-28.4 1-4-.8-6.7-11.8-17.9-10.9-11.1-10.9-11.2-8.1-11.9 1.5-.4 32.5-.9 68.8-1 36.3-.2 67.1-.5 68.5-.8 1.4-.3 3.9-.8 5.6-1.1 21.3-4 42.5-14.9 60.4-31.2 4.7-4.2 12.3-11.1 16.9-15.3 4.6-4.2 9.4-8.5 10.6-9.6 3.4-3.2 12.3-11.4 21.9-20 9.8-8.9 15.5-14.6 19.3-19.7 4.5-6 15.3-22.8 15.3-23.8 0-.6.5-1 1-1 .6 0 1-.4 1-1 0-.5 1.4-3.2 3-6 6.8-11.5 23.1-43.4 24.4-47.6 1.8-6-4.6-11.2-20.1-16.4-11.2-3.7-21-4.4-31.1-2.3zm19.8 16.7c.8.1 3.9 1 6.7 2l5.3 1.8-6.2 12.1c-8.6 17-19.9 36.5-27.5 47.7-6.4 9.4-14.6 18-31.8 33.5-8.6 7.8-17.2 15.6-22.4 20.4-1.4 1.2-6.2 5.5-10.5 9.5-4.4 3.9-9.8 8.8-12 10.8-2.3 2.1-4.4 3.8-4.8 3.8-.4 0-1.3.6-2 1.3-6.8 6.6-30.1 16.2-44.8 18.3-2.5.4-34 .7-70 .8-68.6.2-68.2.2-77.1 4.7l-3.5 1.8-37.4-37.4c-34.6-34.6-37.3-37.5-35.9-39.2 24.8-30 49.4-51.1 65.4-56.3 2.8-.9 11.9-1.3 31-1.4 33.1-.1 34.2.1 51.5 10.7 6.9 4.2 15.3 9.2 18.7 11.2l6.3 3.6h32.5c35.3 0 36.6.2 41.7 5.6 8.8 9.3 4.5 24.8-7.8 27.9-1.6.4-19.1.8-38.9.8-32.1.1-36.4.3-38.7 1.8-1.4.9-2.8 2.9-3.2 4.3-.9 3.6 1.9 9.1 5.2 10.2 1.5.5 19.6.8 40.2.7 36-.1 37.7-.2 43.2-2.3 7.6-2.9 14.8-9.6 18.3-16.8 3.4-7.1 4.4-17.5 2.2-24.4l-1.4-4.6 12.6-5.3c31.3-13.1 36.1-16.4 46.9-32.1 15-21.7 28.5-28.9 48.2-25.5zM125.5 390.7l64.7 64.6-18.1 18.1-18.1 18-64.5-64.5-64.6-64.6 17.8-18c9.8-9.9 17.9-18.1 18-18.2.1 0 29.2 29 64.8 64.6z"/></svg>