<svg width="44" height="42" viewBox="0 0 44 42" fill="none" xmlns="http://www.w3.org/2000/svg">
<g id="Icon">
<g id="Group">
<path id="Vector" d="M39.9109 12.7342C40.2586 13.152 40.5327 13.6272 40.7203 14.1395L39.7813 14.4834L40.7203 14.1395C40.9579 14.7883 41.0511 15.4811 40.9933 16.1696C40.9356 16.8581 40.7284 17.5257 40.3862 18.1259C40.0439 18.7261 39.5749 19.2443 39.0117 19.6446L39.0019 19.6516L38.9918 19.6583C38.0335 20.3052 36.876 20.5894 35.7271 20.46C34.5839 20.3312 33.5235 19.8013 32.7344 18.9647L31.9863 18.2166L31.9811 18.2114L31.9811 18.2114C31.9725 18.2027 31.9623 18.1958 31.951 18.1911L32.3361 17.2682L31.951 18.1911C31.9437 18.188 31.9361 18.1859 31.9282 18.1849C31.8482 18.1927 31.7723 18.2249 31.7109 18.2771L28.598 21.3855C28.5979 21.3857 28.5978 21.3858 28.5976 21.386C28.4458 21.5382 28.3353 21.7267 28.2768 21.9337C28.2182 22.1408 28.2136 22.3594 28.2633 22.5689L28.2667 22.5832L28.2697 22.5976L28.5828 24.1129C28.971 25.6245 29.0869 27.1933 28.9248 28.7457C28.828 29.8431 28.416 30.8892 27.7383 31.758C27.0595 32.6283 26.1431 33.2834 25.1 33.6441C24.429 33.8805 23.7226 34.0008 23.0112 34L22.9956 34L22.9801 33.9995C20.8659 33.9311 18.8645 33.0295 17.4125 31.4915L16.2485 30.2865L7.27283 39.2623C7.04361 39.4977 6.77018 39.6857 6.46818 39.8155L6.07348 38.8966L6.46818 39.8155C6.16317 39.9465 5.83512 40.0154 5.50317 40.0183C5.17122 40.0212 4.84202 39.958 4.53477 39.8323C4.22754 39.7066 3.94841 39.5209 3.71367 39.2862C3.47894 39.0515 3.29331 38.7723 3.16761 38.4651C3.04191 38.1578 2.97866 37.8287 2.98154 37.4967C2.98442 37.1648 3.05339 36.8367 3.18441 36.5317L4.1019 36.9258L3.18442 36.5317C3.31414 36.2297 3.50214 35.9563 3.73762 35.727L12.774 26.6879L10.8434 24.6888C10.0034 23.8468 9.42043 22.783 9.16277 21.6218C8.90509 20.4605 8.98344 19.2499 9.38857 18.1316C9.76399 17.0437 10.4418 16.0854 11.3427 15.369C12.2458 14.6509 13.3353 14.2058 14.483 14.0864L39.9109 12.7342ZM39.9109 12.7342V12.7001L39.6178 12.4072L30.7045 3.49844C29.9111 2.68064 28.8559 2.16689 27.7226 2.04678C26.5863 1.92635 25.4438 2.20933 24.495 2.84621L24.4838 2.85373L24.4728 2.86155C23.9098 3.26196 23.4409 3.78036 23.0988 4.38062C22.7567 4.98087 22.5497 5.64852 22.4922 6.33701C22.4347 7.0255 22.528 7.71825 22.7657 8.36694C23.0035 9.01564 23.3799 9.60467 23.8686 10.093L23.8689 10.0932L24.7541 10.9769C24.7544 10.9772 24.7546 10.9774 24.7548 10.9777C24.7944 11.0179 24.8166 11.072 24.8166 11.1285C24.8166 11.1849 24.7944 11.2391 24.7548 11.2793C24.7546 11.2796 24.7543 11.2798 24.7541 11.2801L21.6078 14.4263C21.6076 14.4266 21.6073 14.4268 21.6071 14.4271C21.4532 14.5801 21.2623 14.6907 21.0529 14.7482C20.8438 14.8056 20.6233 14.8081 20.4129 14.7552C20.4125 14.7551 20.412 14.755 20.4115 14.7549L19.1894 14.4419C19.1887 14.4417 19.188 14.4415 19.1872 14.4413C17.6534 14.0412 16.06 13.921 14.4834 14.0864L39.9109 12.7342Z" fill="#FF913C" stroke="white" stroke-width="2"/>
</g>
</g>
</svg>
