<?xml version="1.0" encoding="UTF-8"?>
<svg viewBox="0 0 402.34375 452.54834" xmlns="http://www.w3.org/2000/svg" xmlns:xlink="http://www.w3.org/1999/xlink">
    <defs>
        <linearGradient id="a">
        <stop stop-color="#fff" offset="0"/>
        <stop stop-color="#fff" stop-opacity="0" offset="1"/>
        </linearGradient>
        <linearGradient id="c" x1="500.35" x2="469.84" y1="825.39" y2="719.76" gradientTransform="matrix(-1 0 0 1 1035.4 -9.1924)" gradientUnits="userSpaceOnUse">
        <stop stop-color="#e4e4e1" offset="0"/>
        <stop stop-color="#e4e4e1" stop-opacity="0" offset="1"/>
        </linearGradient>
        <linearGradient id="d" x1="509.74" x2="528.65" y1="609.57" y2="689.57" gradientUnits="userSpaceOnUse" xlink:href="#a"/>
        <linearGradient id="b" x1="442.1" x2="465.63" y1="826.28" y2="829.97" gradientUnits="userSpaceOnUse" xlink:href="#a"/>
        <linearGradient id="e" x1="557.17" x2="580.98" gradientUnits="userSpaceOnUse" xlink:href="#a"/>
    </defs>
    <g transform="translate(-310.42 -510.72)">
        <path transform="translate(13.435 28.284)" d="m699.33 708.71a201.17 226.27 0 1 1 -402.34 0 201.17 226.27 0 1 1 402.34 0z"/>
        <path d="m574.61 582.36c-17.638 0.21964-39.204 5.6526-61.844 8.8438-57.32-5.3149-107.87-29.311-107.88 46.969 0 34.103 5.3596 59.304 19.98 106.56-5.2391 79.341 9.893 185.62 18.863 184.72 5.157 16.96 24.77-53.192 31.594-124.88 8.1699-30.53 53.002-30.865 60.676 1.6722 4.7872 67.936 33.894 132.79 38.792 124.45 6.7531-5.5285 24.821-105 21.968-186.38 21.036-42.985 21.001-73.228 21.001-106.16 0-45.291-17.378-56.134-43.156-55.812z" fill="#eeeeec"/>
        <path d="m458.35 580.94c12.537 1.9253 26.174 4.739 40.219 6.7188 4.6919-0.43505 9.329-1.0048 13.906-1.625 6.0918 1.0783 12.304 2.1715 18.625 3.0625 17.889-1.6587 35.104-5.1619 50.344-6.8438 15.463 5.0556 25 19.272 25 52.375 0 34.103-5.3479 59.304-19.969 106.56 3.0035 45.485-0.70618 99.797-6.0938 137.72-4.8008-22.122-9.9535-54.809-12.551-82.094-6.5027-3.1185-19.173-10.39-51.419-15.96-24.556-4.2414-25.637 0.59518-42.749 22.023-2.1758 25.281-9.4291 61.531-13.125 82-5.286-36.325-14.919-100.41-13.438-142.66-21.036-42.985-21-73.229-21-106.16 0-38.557 12.6-52.134 32.25-55.125z" fill="url(#c)"/>
        <path d="m562.6 591.41c-14.732 0.18346-32.746 4.7215-51.656 7.387-47.878-4.4394-90.105-24.483-90.105 39.232 0 22.597 2.8406 40.544 10.102 66.691 56.593-61.173 146.67-106.31 160.89-5.09 6.8098-22.675 6.8127-41.541 6.8127-61.601 0-37.831-14.515-46.887-36.047-46.619zm-122.08 233.88c0.09033 0.822 0.1685 1.6428 0.26102 2.4536 0.02707-0.43347 0.04981-0.87353 0.07831-1.3051-0.12138-0.39233-0.21948-0.75978-0.33933-1.1485z" fill="url(#d)"/>
        <path d="m553.7 759.25c-2.9318 0.24054-8.6373 10.763-17.531 33 0.18221 0.12626 0.29292 0.21995 0.46875 0.34375 5.1868 64.339 32.91 138.18 39.062 135.59-1.0014 0.1879-2.1712-1.1686-0.375-9.9062-7.6973-23.059-24.965-78.569-21.531-122.16h-0.15625l0.0625-0.03125c3.0925-24.156 3.3227-37.116 0-36.844zm22.969 168.19c-0.0316-0.02387-0.15308 0.04275-0.40625 0.25-0.1351 0.22999-0.29543 0.37166-0.46875 0.46875 0.51649-0.14774 0.94938-0.66258 0.875-0.71875z" fill="url(#e)"/>
        <path d="m442.47 771.06c-5.9157-8.521-9.7584-13.282-13.822-23.751-5.3 66.774 8.8826 175.72 14.913 168.36-10.27-32.39-6.4853-109.61-1.091-144.61z" fill="url(#b)"/>
    </g>
</svg>