<svg width="45" height="45" viewBox="0 0 45 45" fill="none" xmlns="http://www.w3.org/2000/svg">
<g id="Group 30">
<path id="Ellipse 9" d="M15.5354 43.895C18.9157 44.9953 22.5086 45.2791 26.0197 44.723C29.5307 44.1669 32.8601 42.7868 35.7349 40.6958C38.6097 38.6048 40.9482 35.8623 42.5586 32.6932C44.1691 29.5241 45.0057 26.0184 45 22.4636L41.6937 22.4689C41.6986 25.5014 40.9849 28.4919 39.6111 31.1954C38.2373 33.8988 36.2425 36.2383 33.7901 38.022C31.3377 39.8058 28.4976 40.9831 25.5025 41.4575C22.5073 41.9318 19.4424 41.6898 16.5588 40.7511L15.5354 43.895Z" fill="#E1E1E1"/>
<path id="Ellipse 8" d="M45 22.5C45 34.9264 34.9264 45 22.5 45C10.0736 45 0 34.9264 0 22.5C0 10.0736 10.0736 0 22.5 0C34.9264 0 45 10.0736 45 22.5ZM3.30625 22.5C3.30625 33.1004 11.8996 41.6937 22.5 41.6937C33.1004 41.6937 41.6937 33.1004 41.6937 22.5C41.6937 11.8996 33.1004 3.30625 22.5 3.30625C11.8996 3.30625 3.30625 11.8996 3.30625 22.5Z" fill="#3474EA"/>
</g>
</svg>
