<svg width="45" height="45" viewBox="0 0 45 45" fill="none" xmlns="http://www.w3.org/2000/svg">
<g id="Group 29">
<path id="Ellipse 9" d="M15.5354 43.895C18.9157 44.9953 22.5086 45.2791 26.0197 44.723C29.5307 44.1669 32.8601 42.7868 35.7349 40.6958C38.6097 38.6048 40.9482 35.8623 42.5586 32.6932C44.1691 29.5241 45.0057 26.0184 45 22.4636L41.6937 22.4689C41.6986 25.5014 40.9849 28.4919 39.6111 31.1954C38.2373 33.8988 36.2425 36.2383 33.7901 38.022C31.3377 39.8058 28.4976 40.9831 25.5025 41.4575C22.5073 41.9318 19.4424 41.6898 16.5588 40.7511L15.5354 43.895Z" fill="#E1E1E1"/>
<path id="Ellipse 8" d="M42.9611 26.4918C43.8572 26.6667 44.7318 26.0821 44.8404 25.1756C45.3131 21.2289 44.7327 17.2166 43.144 13.5515C41.3356 9.37956 38.3056 5.85341 34.4533 3.43776C30.601 1.02211 26.1072 -0.16967 21.5641 0.0194747C17.021 0.20862 12.6418 1.76981 9.00358 4.49732C5.3654 7.22482 2.63898 10.9906 1.18362 15.2985C-0.271742 19.6063 -0.387748 24.254 0.850891 28.6291C2.08953 33.0042 4.62468 36.9013 8.12226 39.807C11.1949 42.3595 14.8835 44.0416 18.8045 44.6945C19.7051 44.8444 20.5114 44.1688 20.5948 43.2596V43.2596C20.6782 42.3505 20.0068 41.553 19.1081 41.3917C15.8527 40.8072 12.7935 39.3892 10.235 37.2638C7.25136 34.7851 5.08874 31.4607 4.03211 27.7285C2.97548 23.9963 3.07444 20.0315 4.31595 16.3567C5.55745 12.6819 7.88324 9.46942 10.9868 7.14271C14.0904 4.816 17.8261 3.48422 21.7016 3.32286C25.5771 3.16151 29.4106 4.17817 32.6968 6.23885C35.983 8.29953 38.5678 11.3075 40.1105 14.8665C41.4333 17.9182 41.9367 21.2523 41.5849 24.5411C41.4878 25.4489 42.065 26.317 42.9611 26.4918V26.4918Z" fill="#2060D6"/>
</g>
</svg>
