<svg width="44" height="42" fill="none" xmlns="http://www.w3.org/2000/svg"><path d="M39.91 12.734c.349.418.623.893.81 1.405l-.939.344.94-.344a4.748 4.748 0 01-1.71 5.506l-.01.007-.01.006a4.862 4.862 0 01-6.257-.693l-.748-.748-.005-.006h0a.092.092 0 00-.03-.02l.385-.923-.385.923a.086.086 0 00-.023-.006.395.395 0 00-.217.092l-3.113 3.108v.001a1.261 1.261 0 00-.335 1.183l.004.014.003.015.313 1.515a13.14 13.14 0 01.342 4.633 5.714 5.714 0 01-3.825 4.898 6.265 6.265 0 01-2.089.356h-.031a8.013 8.013 0 01-5.567-2.509l-1.165-1.204-8.975 8.975a2.49 2.49 0 01-.805.553l-.395-.918.395.919a2.5 2.5 0 01-3.284-3.284l.918.394-.918-.394a2.5 2.5 0 01.554-.805l9.036-9.04-1.93-1.998a6.264 6.264 0 01-1.455-6.557 6.052 6.052 0 015.094-4.046l25.428-1.352zm0 0V12.7l-.292-.293-8.914-8.909a4.87 4.87 0 00-6.209-.652l-.011.008-.011.008a4.75 4.75 0 00-.604 7.231h0l.885.884s0 0 0 0a.215.215 0 010 .302v.001l-3.146 3.146v.001a1.259 1.259 0 01-1.195.328h-.002l-1.222-.313h-.002a13.198 13.198 0 00-4.704-.356l25.428-1.352z" fill="#FF913C" stroke="#fff" stroke-width="2"/></svg>