<svg viewBox="0 0 402.344 452.548" xmlns="http://www.w3.org/2000/svg" xmlns:xlink="http://www.w3.org/1999/xlink"><defs><linearGradient id="a"><stop stop-color="#fff" offset="0"/><stop stop-color="#fff" stop-opacity="0" offset="1"/></linearGradient><linearGradient id="b" x1="500.35" x2="469.84" y1="825.39" y2="719.76" gradientTransform="matrix(-1 0 0 1 1035.4 -9.192)" gradientUnits="userSpaceOnUse"><stop stop-color="#e4e4e1" offset="0"/><stop stop-color="#e4e4e1" stop-opacity="0" offset="1"/></linearGradient><linearGradient id="c" x1="509.74" x2="528.65" y1="609.57" y2="689.57" gradientUnits="userSpaceOnUse" xlink:href="#a"/><linearGradient id="e" x1="442.1" x2="465.63" y1="826.28" y2="829.97" gradientUnits="userSpaceOnUse" xlink:href="#a"/><linearGradient id="d" x1="557.17" x2="580.98" gradientUnits="userSpaceOnUse" xlink:href="#a"/></defs><path d="M402.345 226.274a201.17 226.27 0 11-402.34 0 201.17 226.27 0 11402.34 0z"/><path d="M264.19 71.64c-17.638.22-39.204 5.653-61.844 8.844-57.32-5.315-107.87-29.311-107.88 46.969 0 34.103 5.36 59.304 19.98 106.56-5.24 79.34 9.893 185.62 18.863 184.72 5.157 16.96 24.77-53.192 31.594-124.88 8.17-30.53 53.002-30.865 60.676 1.672 4.787 67.936 33.894 132.79 38.792 124.45 6.753-5.529 24.821-105 21.968-186.38 21.036-42.985 21.001-73.228 21.001-106.16 0-45.291-17.378-56.134-43.156-55.812z" fill="#eeeeec"/><path d="M458.35 580.94c12.537 1.925 26.174 4.739 40.219 6.719 4.692-.435 9.329-1.005 13.906-1.625 6.092 1.078 12.304 2.171 18.625 3.062 17.889-1.658 35.104-5.162 50.344-6.843 15.463 5.055 25 19.272 25 52.375 0 34.103-5.348 59.304-19.969 106.56 3.003 45.485-.706 99.797-6.094 137.72-4.8-22.122-9.953-54.81-12.55-82.094-6.504-3.119-19.174-10.39-51.42-15.96-24.556-4.242-25.637.595-42.749 22.022-2.176 25.281-9.429 61.531-13.125 82-5.286-36.325-14.919-100.41-13.438-142.66-21.036-42.985-21-73.229-21-106.16 0-38.557 12.6-52.134 32.25-55.125z" fill="url(#b)" transform="translate(-310.42 -510.72)"/><path d="M562.6 591.41c-14.732.183-32.746 4.721-51.656 7.387-47.878-4.44-90.105-24.483-90.105 39.232 0 22.597 2.84 40.544 10.102 66.691 56.593-61.173 146.67-106.31 160.89-5.09 6.81-22.675 6.813-41.541 6.813-61.601 0-37.831-14.515-46.887-36.047-46.619zM440.52 825.29c.09.822.169 1.643.261 2.454.027-.434.05-.874.078-1.306-.121-.392-.22-.76-.339-1.148z" fill="url(#c)" transform="translate(-310.42 -510.72)"/><path d="M553.7 759.25c-2.932.24-8.637 10.763-17.531 33 .182.126.293.22.469.344 5.187 64.339 32.91 138.18 39.062 135.59-1.002.188-2.171-1.169-.375-9.906-7.698-23.06-24.965-78.57-21.531-122.16h-.156l.062-.032c3.093-24.156 3.323-37.116 0-36.844zm22.969 168.19c-.032-.024-.153.043-.406.25-.135.23-.296.372-.469.469.516-.148.95-.663.875-.719z" fill="url(#d)" transform="translate(-310.42 -510.72)"/><path d="M442.47 771.06c-5.916-8.521-9.758-13.282-13.822-23.751-5.3 66.774 8.883 175.72 14.913 168.36-10.27-32.39-6.485-109.61-1.091-144.61z" fill="url(#e)" transform="translate(-310.42 -510.72)"/></svg>