<?xml version="1.0" standalone="no"?>
<!DOCTYPE svg PUBLIC "-//W3C//DTD SVG 20010904//EN"
 "http://www.w3.org/TR/2001/REC-SVG-20010904/DTD/svg10.dtd">
<svg version="1.0" xmlns="http://www.w3.org/2000/svg"
 width="512.000000pt" height="512.000000pt" viewBox="0 0 512.000000 512.000000"
 preserveAspectRatio="xMidYMid meet">
<metadata>
Created by potrace 1.14, written by Peter Selinger 2001-2017
</metadata>
<g transform="translate(0.000000,512.000000) scale(0.100000,-0.100000)"
fill="#000000" stroke="none">
<path d="M2568 5105 c-212 -45 -348 -162 -382 -327 -13 -62 -13 -223 -1 -325
4 -29 6 -55 6 -58 0 -11 41 -153 57 -195 18 -50 61 -133 99 -193 37 -59 52
-109 48 -163 -4 -52 -6 -62 -25 -134 -13 -48 -15 -56 -25 -116 -41 -235 -16
-505 61 -680 64 -144 141 -203 228 -174 48 15 70 46 96 133 103 351 248 613
363 656 28 11 76 -8 110 -41 95 -95 212 -331 282 -568 45 -152 72 -185 153
-185 62 0 97 27 150 115 79 133 121 332 116 554 -3 108 -14 176 -51 330 -24
101 -25 115 -14 170 7 34 18 68 26 76 30 35 97 168 125 248 43 120 62 244 62
402 1 178 -21 242 -112 338 -102 107 -344 175 -515 143 -101 -19 -233 -81
-288 -135 -16 -16 -20 -17 -41 -3 -13 9 -30 22 -38 30 -24 24 -138 78 -203 97
-72 20 -207 22 -287 5z m272 -179 c53 -20 122 -59 139 -80 11 -14 8 -21 -25
-50 -70 -63 -146 -103 -197 -105 -31 -2 -67 -47 -67 -85 0 -26 7 -40 31 -60
26 -22 38 -26 75 -21 108 13 206 76 363 232 93 93 127 120 190 150 72 36 81
37 176 37 120 -1 206 -26 274 -82 65 -53 84 -104 83 -226 -2 -142 -7 -192 -31
-286 -18 -68 -34 -104 -143 -310 -53 -101 -59 -187 -23 -335 38 -158 46 -214
49 -322 3 -115 -14 -239 -45 -336 -30 -98 -34 -99 -62 -11 -132 416 -321 664
-509 667 -187 3 -355 -209 -507 -637 l-38 -109 -21 56 c-22 57 -28 79 -37 132
-30 177 -25 322 17 505 12 52 23 102 25 110 27 120 10 205 -73 352 -58 103
-104 217 -118 293 -15 82 -17 108 -18 215 -1 211 51 269 287 324 38 9 160 -2
205 -18z"/>
<path d="M4562 2813 c-160 -33 -288 -128 -413 -309 -92 -132 -126 -156 -379
-265 l-195 -84 -60 30 -60 30 -335 5 -335 5 -171 103 c-243 146 -235 144 -594
146 -330 2 -371 -3 -487 -59 -71 -35 -187 -113 -259 -176 -69 -59 -288 -283
-339 -346 l-50 -63 -110 109 c-60 60 -119 113 -130 119 -50 24 -70 9 -336
-258 -143 -142 -259 -262 -260 -267 -9 -71 -50 -25 725 -801 686 -687 733
-732 766 -732 31 0 55 21 297 263 145 144 266 272 269 284 10 40 -8 67 -118
179 -109 111 -109 112 -81 119 15 4 325 9 688 10 363 2 671 5 685 8 14 3 39 8
56 11 213 40 425 149 604 312 47 42 123 111 169 153 46 42 94 85 106 96 34 32
123 114 219 200 98 89 155 146 193 197 45 60 153 228 153 238 0 6 5 10 10 10
6 0 10 4 10 10 0 5 14 32 30 60 68 115 231 434 244 476 18 60 -46 112 -201
164 -112 37 -210 44 -311 23z m198 -167 c8 -1 39 -10 67 -20 l53 -18 -62 -121
c-86 -170 -199 -365 -275 -477 -64 -94 -146 -180 -318 -335 -86 -78 -172 -156
-224 -204 -14 -12 -62 -55 -105 -95 -44 -39 -98 -88 -120 -108 -23 -21 -44
-38 -48 -38 -4 0 -13 -6 -20 -13 -68 -66 -301 -162 -448 -183 -25 -4 -340 -7
-700 -8 -686 -2 -682 -2 -771 -47 l-35 -18 -374 374 c-346 346 -373 375 -359
392 248 300 494 511 654 563 28 9 119 13 310 14 331 1 342 -1 515 -107 69 -42
153 -92 187 -112 l63 -36 325 0 c353 0 366 -2 417 -56 88 -93 45 -248 -78
-279 -16 -4 -191 -8 -389 -8 -321 -1 -364 -3 -387 -18 -14 -9 -28 -29 -32 -43
-9 -36 19 -91 52 -102 15 -5 196 -8 402 -7 360 1 377 2 432 23 76 29 148 96
183 168 34 71 44 175 22 244 l-14 46 126 53 c313 131 361 164 469 321 150 217
285 289 482 255z m-3505 -1433 l647 -646 -181 -181 -181 -180 -645 645 -646
646 178 180 c98 99 179 181 180 182 1 0 292 -290 648 -646z"/>
</g>
</svg>
